<?xml version="1.0" encoding="utf-8"?>
<!-- Generator: Adobe Illustrator 23.1.0, SVG Export Plug-In . SVG Version: 6.00 Build 0)  -->
<svg version="1.1" id="Layer_1" xmlns="http://www.w3.org/2000/svg" xmlns:xlink="http://www.w3.org/1999/xlink" x="0px" y="0px"
	 viewBox="0 0 10.3 12.2" style="enable-background:new 0 0 10.3 12.2;" xml:space="preserve">
<style type="text/css">
	.st0{fill:#010101;}
</style>
<path class="st0" d="M10.3,10.2c-0.1-0.2-0.2-0.3-0.4-0.3C9,9.9,8.1,9.6,7.3,9C4.9,7.4,4.3,4.1,6,1.8c0.2-0.4,0.5-0.7,0.9-1
	C7,0.7,7,0.5,7,0.3C6.9,0.1,6.8,0,6.6,0C4.4-0.2,2.3,0.9,1.1,2.6c-1.9,2.8-1.2,6.6,1.6,8.5c1,0.7,2.3,1.1,3.5,1.1
	c1.4,0,2.9-0.5,4-1.5C10.3,10.6,10.3,10.4,10.3,10.2z M3.2,10.4c-2.4-1.6-3-4.9-1.3-7.3c0.9-1.3,2.2-2,3.7-2.2
	C5.4,1,5.3,1.1,5.3,1.3C3.3,4,4,7.9,6.8,9.8c0.6,0.4,1.2,0.7,1.9,0.9C7,11.6,4.8,11.6,3.2,10.4z"/>
</svg>
