<?xml version="1.0" encoding="utf-8"?>
<!-- Generator: Adobe Illustrator 23.1.0, SVG Export Plug-In . SVG Version: 6.00 Build 0)  -->
<svg version="1.1" id="Layer_1" xmlns="http://www.w3.org/2000/svg" xmlns:xlink="http://www.w3.org/1999/xlink" x="0px" y="0px"
	 viewBox="0 0 15.2 15.2" style="enable-background:new 0 0 15.2 15.2;" xml:space="preserve">
<style type="text/css">
	.st0{fill:#FFFFFF;}
</style>
<g>
	<g>
		<path class="st0" d="M7.6,3.4c-2.3,0-4.2,1.9-4.2,4.2s1.9,4.2,4.2,4.2s4.2-1.9,4.2-4.2C11.8,5.3,9.9,3.4,7.6,3.4z M7.6,10.9
			c-1.8,0-3.3-1.5-3.3-3.3c0-1.8,1.5-3.3,3.3-3.3s3.3,1.5,3.3,3.3C10.9,9.5,9.4,10.9,7.6,10.9z"/>
		<path class="st0" d="M7.6,3.2C7.8,3.2,8,3,8,2.7V0.4C8,0.2,7.8,0,7.6,0S7.2,0.2,7.2,0.4v2.3C7.2,3,7.4,3.2,7.6,3.2z"/>
		<path class="st0" d="M11.1,4.6c0.1,0,0.2,0,0.3-0.1L13,2.8c0.2-0.2,0.2-0.4,0-0.6s-0.4-0.2-0.6,0l-1.6,1.6c-0.2,0.2-0.2,0.4,0,0.6
			C10.8,4.5,10.9,4.6,11.1,4.6z"/>
		<path class="st0" d="M14.8,7.2h-2.3c-0.2,0-0.4,0.2-0.4,0.4c0,0.2,0.2,0.4,0.4,0.4h2.3c0.2,0,0.4-0.2,0.4-0.4
			C15.2,7.4,15,7.2,14.8,7.2z"/>
		<path class="st0" d="M11.4,10.8c-0.2-0.2-0.4-0.2-0.6,0s-0.2,0.5,0,0.6l1.6,1.6c0.1,0.1,0.2,0.1,0.3,0.1c0.1,0,0.2,0,0.3-0.1
			c0.2-0.2,0.2-0.5,0-0.6L11.4,10.8z"/>
		<path class="st0" d="M7.6,12.1c-0.2,0-0.4,0.2-0.4,0.4v2.3c0,0.2,0.2,0.4,0.4,0.4C7.8,15.2,8,15,8,14.8v-2.3
			C8,12.2,7.8,12.1,7.6,12.1z"/>
		<path class="st0" d="M3.8,10.8l-1.6,1.6c-0.2,0.2-0.2,0.5,0,0.6c0.1,0.1,0.2,0.1,0.3,0.1s0.2,0,0.3-0.1l1.6-1.6
			c0.2-0.2,0.2-0.5,0-0.6C4.3,10.6,4,10.6,3.8,10.8z"/>
		<path class="st0" d="M3.2,7.6c0-0.2-0.2-0.4-0.4-0.4H0.4C0.2,7.2,0,7.4,0,7.6S0.2,8,0.4,8h2.3C3,8,3.2,7.8,3.2,7.6z"/>
		<path class="st0" d="M3.8,4.5C3.9,4.6,4,4.6,4.2,4.6s0.2,0,0.3-0.1c0.2-0.2,0.2-0.4,0-0.6L2.8,2.2c-0.2-0.2-0.5-0.2-0.6,0
			S2,2.7,2.2,2.8L3.8,4.5z"/>
	</g>
</g>
</svg>
